<svg xmlns="http://www.w3.org/2000/svg" xmlns:xlink="http://www.w3.org/1999/xlink" width="23.65234375" height="24" viewBox="0 0 23.65234375 24" fill="none"><rect x="0" y="0" width="23.652191162109375" height="24"   fill="#CCCCCC" fill-opacity="0.01"></rect><path   fill="rgba(5, 2, 11, 1)"  d="M14.0239 2.51775L21.6814 10.2879C22.0729 10.6852 22.0637 11.3259 21.6611 11.7118L14.0035 19.0503C13.3677 19.6596 12.3116 19.209 12.3116 18.3283L12.3116 14.5L12.3143 14.4988Q12.3285 14.5131 12.3479 14.5121Q9.76109 14.6475 7.56638 16.2873Q5.92548 17.5133 4.62996 19.4671Q4.41738 19.7877 4.03006 19.8951Q3.70989 19.9839 3.37452 19.8972Q3.02512 19.8069 2.79976 19.5623Q2.51619 19.2545 2.54544 18.8422Q2.93683 13.3253 5.11934 10.422Q7.55875 7.17686 12.287 7.00918Q12.3001 7.00871 12.3096 6.99932L12.3116 7L12.3116 3.21968C12.3116 2.32525 13.396 1.8807 14.0239 2.51775ZM13.3116 3.21968C13.3116 3.21968 13.3116 3.21968 13.3116 3.21968L13.3116 7Q13.3116 7.41389 13.0138 7.70932Q12.7265 7.99422 12.3224 8.00855Q8.07126 8.15931 5.91868 11.0228Q3.91345 13.6904 3.54293 18.913Q3.54424 18.8945 3.5352 18.8847Q3.56083 18.9125 3.62486 18.9291Q3.70081 18.9487 3.76277 18.9315Q3.79029 18.9239 3.79653 18.9145Q5.18794 16.816 6.96785 15.4862Q9.40569 13.6648 12.2956 13.5134Q12.7245 13.491 13.0258 13.796Q13.3116 14.0854 13.3116 14.5L13.3116 18.3283C13.3116 18.3283 13.3116 18.3283 13.3116 18.3283L20.9692 10.9898C20.9692 10.9898 20.9692 10.9898 20.9692 10.9898L13.3116 3.21968L13.3116 3.21968Z"></path></svg>